# xmcd
#
# Track frame offsets:
#	150
#	17265
#	29140
#	55258
#	81665
#	92418
#	104770
#	135128
#	157740
#	166715
#	180020
#	197758
#	210493
#	222705
#
# Disc length: 3141
#
# Revision: 3
# Processed by: cddbd v1.5.1PL0 Copyright (c) Steve Scherf et al.
# Submitted via: CDex 1.30Release
# Normalized: r2:DSETVAR1,TDELIM( - )
#
DISCID=af0c430e
DTITLE=Various Artist - Best Of The Blues
DYEAR=1992
DGENRE=Blues
TTITLE0=John Lee Hooker - Blues Before Sunrise
TTITLE1=Jimmy Reed - honest i do
TTITLE2=B B King - guess who
TTITLE3=Otis Rush and Little Walter - it's hard for me to believe baby
TTITLE4=Muddy Waters - diamonds
TTITLE5=Howlin Wolf - ain't supersticious
TTITLE6=Big Jo Turner - how long blues
TTITLE7=Sonny Terry and Brownie Mc Ghee - drinking in the blues
TTITLE8=Jeff Beck - i ain't got you
TTITLE9=Memphis Slim - everyday i have the blues
TTITLE10=Nina Simone - blues for mama
TTITLE11=Muddy Waters - forty days and forty nights
TTITLE12=Elmore James - mean mistreatin' mama
TTITLE13=Howlin Wolf - highway 49
EXTD=YEAR: 1992 ID3G:   0
EXTT0=
EXTT1=
EXTT2=
EXTT3=
EXTT4=
EXTT5=
EXTT6=
EXTT7=
EXTT8=
EXTT9=
EXTT10=
EXTT11=
EXTT12=
EXTT13=
PLAYORDER=
